<?xml version="1.0" standalone="no"?>
<!DOCTYPE svg PUBLIC "-//W3C//DTD SVG 20010904//EN"
 "http://www.w3.org/TR/2001/REC-SVG-20010904/DTD/svg10.dtd">
<svg version="1.0" xmlns="http://www.w3.org/2000/svg"
 width="700.000000pt" height="700.000000pt" viewBox="0 0 700.000000 700.000000"
 preserveAspectRatio="xMidYMid meet">
<metadata>
Created by potrace 1.14, written by Peter Selinger 2001-2017
</metadata>
<g transform="translate(0.000000,700.000000) scale(0.100000,-0.100000)"
fill="#000000" stroke="none">
<path d="M194 6984 c-60 -21 -119 -77 -151 -142 l-28 -57 0 -1010 0 -1010 28
-57 c16 -32 46 -73 69 -92 78 -67 68 -66 713 -66 l581 0 34 63 c294 551 828
977 1430 1142 101 28 108 29 185 45 75 15 136 23 260 35 107 11 403 4 478 -11
12 -2 39 -6 62 -9 76 -11 100 -16 185 -36 633 -146 1202 -581 1516 -1157 l39
-72 550 0 c334 0 567 4 594 11 91 21 174 107 196 204 8 35 11 343 10 1025 -1
942 -1 977 -20 1030 -13 37 -36 71 -67 101 -88 87 262 79 -3382 78 -2812 -1
-3246 -3 -3282 -15z"/>
<path d="M3360 5327 c-3 -2 -38 -7 -78 -11 -193 -16 -511 -119 -677 -219 -240
-144 -399 -281 -552 -477 -169 -216 -278 -453 -343 -740 -28 -126 -30 -149
-35 -345 -3 -166 7 -304 30 -395 4 -14 9 -36 11 -50 30 -165 134 -410 248
-584 294 -450 758 -744 1291 -820 95 -13 430 -16 480 -3 11 3 42 8 70 12 75
10 259 60 350 95 143 56 358 174 441 243 10 9 37 30 59 47 177 138 370 379
479 597 97 194 145 349 181 583 12 79 13 416 2 480 -3 14 -8 43 -11 65 -3 22
-18 87 -32 144 -150 604 -615 1100 -1216 1295 -69 22 -212 55 -308 71 -47 8
-384 19 -390 12z m262 -1002 c167 -21 337 -106 466 -235 86 -87 143 -174 193
-295 34 -82 51 -180 51 -295 0 -118 -16 -201 -59 -310 -166 -414 -627 -624
-1048 -478 -363 126 -597 497 -554 875 23 198 104 367 242 503 187 186 437
269 709 235z"/>
<path d="M230 3833 c-87 -30 -147 -85 -189 -173 l-26 -55 0 -1680 0 -1680 29
-60 c33 -69 86 -123 154 -156 l47 -24 1490 -2 c1489 -2 1490 -2 1544 19 66 25
140 95 173 164 23 49 23 50 25 510 l3 461 -63 2 c-34 1 -80 4 -102 6 -22 2
-63 7 -92 10 -69 7 -243 40 -318 60 -657 172 -1222 638 -1515 1250 -24 50 -43
92 -43 95 1 3 -7 21 -17 40 -19 37 -89 249 -96 290 -3 14 -8 34 -11 45 -4 11
-8 25 -9 30 -20 105 -34 192 -39 240 -3 33 -8 78 -11 100 -5 45 -5 304 0 350
2 17 7 63 11 103 l7 72 -454 0 c-385 -1 -460 -3 -498 -17z"/>
<path d="M5825 3778 c4 -40 9 -86 11 -103 5 -35 5 -307 0 -350 -2 -16 -7 -61
-11 -100 -5 -38 -9 -74 -10 -80 -13 -120 -97 -424 -148 -536 -42 -92 -67 -150
-67 -154 0 -3 271 -5 603 -5 l602 0 50 24 c28 12 64 38 82 56 66 68 64 44 61
632 l-3 533 -34 48 c-24 33 -52 56 -94 77 l-60 30 -494 0 -494 0 6 -72z"/>
<path d="M4973 1681 c-209 -172 -483 -323 -731 -402 l-72 -23 3 -501 c2 -477
3 -502 23 -548 30 -72 95 -141 161 -174 l58 -28 1119 -3 c1006 -2 1125 -1
1175 14 121 35 210 136 229 261 9 55 7 1186 -2 1222 -20 86 -90 172 -178 218
l-53 28 -825 2 -825 2 -82 -68z"/>
</g>
</svg>
