<svg xmlns="http://www.w3.org/2000/svg" width="260" height="260" style="shape-rendering:geometricPrecision;text-rendering:geometricPrecision;image-rendering:optimizeQuality;fill-rule:evenodd;clip-rule:evenodd"><path fill="#369" d="M216.03 117h34.82c5.31 0 9.65 4.38 9.65 9.74v32.51c0 5.36-4.34 9.75-9.65 9.75h-43.07c5.9-11.73 9.22-24.98 9.22-39 0-4.42-.33-8.76-.97-13z"/><path fill="#66C" d="M10.64 0h237.15c5.58 0 10.14 4.6 10.14 10.24v70.52c0 5.63-4.56 10.24-10.14 10.24h-40.01c-14.3-28.46-43.75-48-77.78-48S66.52 62.54 52.22 91H10.64C5.06 91 .5 86.39.5 80.76V10.24C.5 4.6 5.06 0 10.64 0z"/><path fill="#699" d="M12.08 117h31.89c-.64 4.24-.97 8.58-.97 13 0 47.78 38.53 86.56 86.21 86.99v31.31c0 6.44-5.21 11.7-11.58 11.7H12.08C5.71 260 .5 254.74.5 248.3V128.69C.5 122.26 5.71 117 12.08 117z"/><path fill="#69F" d="M187.82 195h58.04c6.64 0 12.07 5.48 12.07 12.18v40.63c0 6.71-5.43 12.19-12.07 12.19h-78.84c-6.64 0-12.06-5.48-12.06-12.19v-34.45c12.32-3.69 23.5-10.03 32.86-18.36z"/><path fill="#66C" d="M130 62c37.56 0 68 30.44 68 68 0 37.55-30.44 68-68 68s-68-30.45-68-68c0-37.56 30.44-68 68-68zm0 37c17.12 0 31 13.88 31 31 0 17.12-13.88 31-31 31-17.12 0-31-13.88-31-31 0-17.12 13.88-31 31-31z"/></svg>