<svg xmlns="http://www.w3.org/2000/svg" xml:space="preserve" width="433" height="81" style="shape-rendering:geometricPrecision;text-rendering:geometricPrecision;image-rendering:optimizeQuality;fill-rule:evenodd;clip-rule:evenodd" viewBox="0 0 433 81.32">
  <path d="M302.7 45.11h8.76c1.33 0 2.42 1.1 2.42 2.45v8.18a2.44 2.44 0 0 1-2.42 2.45h-10.84a21.71 21.71 0 0 0 2.08-13.08zm-51.67-29.43h59.66c1.4 0 2.55 1.15 2.55 2.57v17.74a2.57 2.57 0 0 1-2.55 2.58h-10.07a21.87 21.87 0 0 0-39.13 0h-10.46a2.57 2.57 0 0 1-2.55-2.58V18.25a2.57 2.57 0 0 1 2.55-2.57zm.37 29.43h8.02a21.88 21.88 0 0 0 21.44 25.15v7.88a2.93 2.93 0 0 1-2.91 2.94H251.4a2.93 2.93 0 0 1-2.92-2.94V48.05a2.93 2.93 0 0 1 2.92-2.94zm44.2 19.62h14.6a3.06 3.06 0 0 1 3.04 3.06v10.22a3.06 3.06 0 0 1-3.04 3.07h-19.83a3.06 3.06 0 0 1-3.04-3.07v-8.66a21.88 21.88 0 0 0 8.27-4.62zm-14.54-33.46a17.1 17.1 0 1 1-.01 34.21 17.1 17.1 0 0 1 .01-34.21zm0 9.31a7.8 7.8 0 1 1 0 15.6 7.8 7.8 0 0 1 0-15.6z" style="fill:#66c"/>
  <path d="M-.37 80.74V2.08H22.7c8.24 0 16.11 2.15 22.05 8.09 5.8 5.79 8.11 13.25 8.11 21.35v20.15c0 8.05-2.33 15.44-8.17 21.13-5.99 5.85-13.87 7.94-22.08 7.94H-.37zm95.39-35.98v-4.83c0-1.85-.49-3.43-1.9-4.66-1.71-1.51-4.65-1.81-6.83-1.81-2.19 0-5.47.2-7.4 1.36-1.72 1.02-2.83 4.32-3.34 6.11l-.81 2.85-13.56-3.7.55-2.74c1.09-5.43 3.59-10.2 8.11-13.52 4.7-3.45 10.55-4.55 16.27-4.55 5.9 0 11.72 1.22 16.67 4.57 5.18 3.49 7.31 8.84 7.31 14.99V63.2c0 .75.08 3.01.97 3.41 1.65.74 4.74.38 6.46.09l3.48-.57v14.52l-2.59.36c-4.01.55-8.03.33-11.9-.9a9.91 9.91 0 0 1-6.5-6.32 25.78 25.78 0 0 1-5.98 4.57 25.6 25.6 0 0 1-12.83 3.28c-5.08 0-9.8-1.35-14-4.2-4.89-3.32-6.71-8.58-6.71-14.33 0-5.27 1.67-10.01 5.71-13.53a19.11 19.11 0 0 1 12.91-4.82h15.91zm42.51 22.49h7.81V20.27h14.36v46.98h7.81V20.27h14.36v60.47h-58.7V20.27h14.36v46.98zm67.15-37.47c.9-.68 1.88-1.27 2.88-1.79 3.55-1.83 7.88-2.32 11.82-2.32 6.14 0 12.31 1.44 16.7 6 4.19 4.34 5.75 9.97 5.75 15.9v10.16c0 6.91-1.89 13.52-7.37 18.04-5.21 4.3-11.69 5.87-18.34 5.87-6.64 0-13.12-1.54-18.34-5.81-5.64-4.61-7.38-11.62-7.38-18.63V30.77c0-7.09 1.8-14.1 7.36-18.87 4.92-4.22 10.87-6.6 17.21-7.71L237.28.31l2.37 13.71-22.29 3.86c-3.41.59-7.33 1.75-9.84 4.28-1.87 1.89-2.6 4.86-2.84 7.62zm132.53-4.05a15.7 15.7 0 0 1 3.96-3.55c3.33-2.09 7.13-2.91 11.03-2.91 4.72 0 8.93 1.58 12.29 4.92 3.68 3.65 4.99 8.5 4.99 13.57v11.19h-14.63v-7.94c0-1.76-.23-4.27-1.5-5.63-1.19-1.27-3.23-1.52-4.86-1.52-2.24 0-4.32.53-6.24 1.68-2 1.19-3.67 3.01-5.04 4.91v40.29h-15.07V20.27h15.07v5.46zm80.32 48.77a20.26 20.26 0 0 1-15.62 7.14c-5.99 0-11.43-1.87-15.36-6.51-4.08-4.8-5.36-11.06-5.36-17.21V43.09c0-6.8 2.01-13.04 7.19-17.62 5.33-4.7 12.33-6.2 19.26-6.2 2.39 0 4.78.27 7.12.75.93.18 1.86.4 2.77.65V2.08h15.09v78.66h-15.09V74.5zM14.7 66.55h7.91c4.1 0 8.56-.8 11.44-3.97 2.76-3.04 3.72-6.87 3.72-10.91V31.52c0-4.13-1.02-7.95-3.76-11.1-2.86-3.28-7.23-4.15-11.4-4.15H14.7v50.28zm80.32-4.24v-4.76H81.66c-1.67 0-3.4.29-4.8 1.26-1.14.78-1.3 2.51-1.3 3.75 0 1.44.28 2.92 1.34 3.96 1.17 1.16 3.95 1.33 5.48 1.33 2.6 0 5.16-.44 7.57-1.45a12.72 12.72 0 0 0 5.07-4.09zm121.01 5.14c2.54 0 6.41-.31 8.32-2.25 1.82-1.84 2.21-4.84 2.21-7.32v-9.37c0-2.28-.39-4.91-2.13-6.55-1.95-1.82-5.9-2.1-8.4-2.1-2.49 0-6.47.27-8.4 2.1-1.74 1.64-2.14 4.27-2.14 6.55v9.37c0 2.48.4 5.48 2.22 7.33 1.9 1.93 5.79 2.24 8.32 2.24zm201.5-8.05V35.48c-1.2-.61-2.47-1.1-3.78-1.46a23.13 23.13 0 0 0-6.03-.76c-2.88 0-6.64.42-8.87 2.45-2.08 1.9-2.57 4.89-2.57 7.57v14.65c0 2.31.31 5.31 1.94 7.11 1.48 1.63 3.86 2.01 5.95 2.01 2.5 0 4.79-.67 6.94-1.95a26.38 26.38 0 0 0 6.42-5.7z" style="fill:#fff"/>
</svg>